<?xml version="1.0" encoding="UTF-8"?>
<svg width="15px" height="18px" viewBox="0 0 15 18" version="1.1" xmlns="http://www.w3.org/2000/svg" xmlns:xlink="http://www.w3.org/1999/xlink">
    <!-- Generator: Sketch 52.2 (67145) - http://www.bohemiancoding.com/sketch -->
    <title>Group 4</title>
    <desc>Created with Sketch.</desc>
    <defs>
        <path d="M17,17 L17,19 L5,19 L5,17 C5,14.4353804 6.60905341,12.2465753 8.87270435,11.3880407 C7.74765126,10.68015 7,9.42738667 7,8 C7,5.790861 8.790861,4 11,4 C13.209139,4 15,5.790861 15,8 C15,9.42738667 14.2523487,10.68015 13.1272957,11.3880407 C15.3909466,12.2465753 17,14.4353804 17,17 Z M10,10.829 L10,12.1 C7.718,12.564 6,14.581 6,17 L6,18 L16,18 L16,17 C16,14.581 14.282,12.564 12,12.1 L12,10.829 C13.165,10.417 14,9.307 14,8 C14,6.343 12.657,5 11,5 C9.343,5 8,6.343 8,8 C8,9.307 8.835,10.417 10,10.829 Z" id="path-1"></path>
        <path d="M18,18 L18,20 L6,20 L6,18 C6,15.4353804 7.60905341,13.2465753 9.87270435,12.3880407 C8.74765126,11.68015 8,10.4273867 8,9 C8,6.790861 9.790861,5 12,5 C14.209139,5 16,6.790861 16,9 C16,10.4273867 15.2523487,11.68015 14.1272957,12.3880407 C16.3909466,13.2465753 18,15.4353804 18,18 Z M11,11.829 L11,13.1 C8.718,13.564 7,15.581 7,18 L7,19 L17,19 L17,18 C17,15.581 15.282,13.564 13,13.1 L13,11.829 C14.165,11.417 15,10.307 15,9 C15,7.343 13.657,6 12,6 C10.343,6 9,7.343 9,9 C9,10.307 9.835,11.417 11,11.829 Z" id="path-3"></path>
    </defs>
    <g id="Symbols" stroke="none" stroke-width="1" fill="none" fill-rule="evenodd">
        <g id="Item/Visitor" transform="translate(-86.000000, -80.000000)">
            <g id="Group-4" transform="translate(80.000000, 75.000000)">
                <g id="Group-3">
                    <g id="Group-2"></g>
                </g>
                <g id="01-General-/-1.4a-Icon">
                    <g id="01-General-/-Primitives-/-Icons-/-User" transform="translate(1.000000, 1.000000)">
                        <mask id="mask-2" fill="white">
                            <use xlink:href="#path-1"></use>
                        </mask>
                        <use id="Icon" fill="#000000" fill-rule="nonzero" xlink:href="#path-1"></use>
                        <g id="01-General-/-Primitives-/-Fill-/-Standard" mask="url(#mask-2)" fill="#32536A" fill-rule="evenodd">
                            <rect id="Fill-Blue" x="0" y="0" width="22" height="22"></rect>
                        </g>
                    </g>
                </g>
                <mask id="mask-4" fill="white">
                    <use xlink:href="#path-3"></use>
                </mask>
                <use id="Icon" fill="#000000" fill-rule="nonzero" xlink:href="#path-3"></use>
                <g id="01-General-/-Primitives-/-Fill-/-Standard" mask="url(#mask-4)" fill="#32536A">
                    <g transform="translate(1.000000, 1.000000)" id="Fill-Blue">
                        <rect x="0" y="0" width="22" height="22"></rect>
                    </g>
                </g>
                <rect id="Rectangle" fill="#FFFFFF" fill-rule="nonzero" x="13" y="15" width="8" height="8"></rect>
                <path d="M17.5,17.5 L17.5,21.5" id="Line" stroke="#32536A" stroke-linecap="square" fill-rule="nonzero"></path>
                <path d="M19.5,19.5 L15.5,19.5" id="Line-Copy" stroke="#32536A" stroke-linecap="square" fill-rule="nonzero"></path>
            </g>
        </g>
    </g>
</svg>