<?xml version="1.0" encoding="UTF-8"?>
<svg width="15px" height="14px" viewBox="0 0 15 14" version="1.1" xmlns="http://www.w3.org/2000/svg" xmlns:xlink="http://www.w3.org/1999/xlink">
    <!-- Generator: Sketch 52.2 (67145) - http://www.bohemiancoding.com/sketch -->
    <title>01 General / 1.4a Icon</title>
    <desc>Created with Sketch.</desc>
    <defs>
        <path d="M5,12 L4,12 L4,16 C4,17.1045695 4.8954305,18 6,18 L17,18 C18.1045695,18 19,17.1045695 19,16 L19,12 L18,12 L18,16 C18,16.5522847 17.5522847,17 17,17 L6,17 C5.44771525,17 5,16.5522847 5,16 L5,12 Z M15,10.625 L14.5,10 L12,12.5 L12,4 L11,4 L11,12.5 L8.5,10 L8,10.625 L11.5,14 L15,10.625 Z" id="path-1"></path>
    </defs>
    <g id="Symbols" stroke="none" stroke-width="1" fill="none" fill-rule="evenodd">
        <g id="Item/Visitor" transform="translate(-113.000000, -80.000000)">
            <g id="01-General-/-1.4a-Icon" transform="translate(108.000000, 75.000000)">
                <g id="01-General-/-Primitives-/-Icons-/-Download-(Import)" transform="translate(1.000000, 1.000000)">
                    <mask id="mask-2" fill="white">
                        <use xlink:href="#path-1"></use>
                    </mask>
                    <use id="icon" fill="#7A92A5" fill-rule="evenodd" xlink:href="#path-1"></use>
                    <g id="01-General-/-Primitives-/-Fill-/-Standard" mask="url(#mask-2)" fill="#32536A" fill-rule="evenodd">
                        <rect id="Fill-Blue" x="0" y="0" width="22" height="22"></rect>
                    </g>
                </g>
            </g>
        </g>
    </g>
</svg>