<?xml version="1.0" encoding="utf-8"?>
<!-- Generator: Adobe Illustrator 23.0.0, SVG Export Plug-In . SVG Version: 6.00 Build 0)  -->
<svg version="1.1" id="Layer_1" xmlns="http://www.w3.org/2000/svg" xmlns:xlink="http://www.w3.org/1999/xlink" x="0px" y="0px"
	 viewBox="0 0 30 30" style="enable-background:new 0 0 30 30;" xml:space="preserve">
<title>Asset 1</title>
<g>
	<g id="Layer_1-2">
		<path d="M15,5C9.5,5,5,9.5,5,15s4.5,10,10,10s10-4.5,10-10c0-0.6-0.1-1.2-0.2-1.7C24,8.5,19.9,5,15,5z M15,24c-5,0-9-4-9-9
			s4-9,9-9c4.4,0,8.1,3.1,8.9,7.4C24,14,24,14.5,24,15C24,20,20,24,15,24z M14.9,18.9l-4.9-5h1.4l3.5,3.5l3.5-3.5h1.4L14.9,18.9z"/>
	</g>
</g>
</svg>
