<?xml version="1.0" encoding="utf-8"?>
<!-- Generator: Adobe Illustrator 23.0.0, SVG Export Plug-In . SVG Version: 6.00 Build 0)  -->
<svg version="1.1" id="Layer_1" xmlns="http://www.w3.org/2000/svg" xmlns:xlink="http://www.w3.org/1999/xlink" x="0px" y="0px"
	 viewBox="0 0 24 24" style="enable-background:new 0 0 24 24;" xml:space="preserve">
<path d="M18.5,9.3c-1-0.8-2.6-2.3-5.6-4.8c-0.5-0.5-1.3-0.4-1.8,0C7.5,7.8,5.8,9.2,5,9.9c-0.7,0.6-0.9,0.7-0.9,1.2v7.7
	c0,0.8,0.6,1.4,1.4,1.4h12.9c0.8,0,1.4-0.6,1.4-1.4V11C19.9,10.5,19.9,10.5,18.5,9.3z M8.9,15.1l-3.9,3.4l0-6.7L8.9,15.1z M9.7,15.7
	l1.4,1.2c0.2,0.2,0.6,0.3,0.9,0.3c0.3,0,0.6-0.1,0.9-0.3l1.3-1.1l3.9,3.5H5.7L9.7,15.7z M15,15.1l4-3.4v6.9L15,15.1z M11.8,5.2
	c0.1-0.1,0.2-0.1,0.2-0.1c0.1,0,0.2,0,0.2,0.1c2.9,2.6,4.6,4,5.6,4.9c0.4,0.3,0.6,0.5,0.8,0.7l-6.4,5.4c-0.1,0.1-0.4,0.1-0.5,0
	l-6.4-5.3c0.1-0.1,0.2-0.1,0.3-0.2C6.4,9.9,8.1,8.5,11.8,5.2z"/>
</svg>
