<?xml version="1.0" encoding="utf-8"?>
<!-- Generator: Adobe Illustrator 23.0.0, SVG Export Plug-In . SVG Version: 6.00 Build 0)  -->
<svg version="1.1" id="Layer_1" xmlns="http://www.w3.org/2000/svg" xmlns:xlink="http://www.w3.org/1999/xlink" x="0px" y="0px"
	 viewBox="0 0 24 24" style="enable-background:new 0 0 24 24;" xml:space="preserve">
<style type="text/css">
	.st0{fill:#162D3D;}
</style>
<g>
	<rect x="13.2" y="9.8" class="st0" width="1.1" height="6.9"/>
	<rect x="10.9" y="9.8" class="st0" width="1.1" height="6.9"/>
	<rect x="8.6" y="9.8" class="st0" width="1.1" height="6.9"/>
	<path class="st0" d="M14.4,6.4V5.2c0-0.6-0.5-1.1-1.1-1.1H9.8c-0.6,0-1.1,0.5-1.1,1.1v1.1H4.1v1.1h1.1v10.3c0,1.9,1.5,3.4,3.4,3.4
		h5.7c1.9,0,3.4-1.5,3.4-3.4V7.5h1.1V6.4H14.4z M9.8,5.2h3.4v1.1H9.8V5.2z M16.7,17.8c0,1.3-1,2.3-2.3,2.3H8.6c-1.3,0-2.3-1-2.3-2.3
		V7.5h10.3V17.8z"/>
</g>
</svg>
